<?xml version="1.0" standalone="no"?>
<!DOCTYPE svg PUBLIC "-//W3C//DTD SVG 20010904//EN"
 "http://www.w3.org/TR/2001/REC-SVG-20010904/DTD/svg10.dtd">
<svg version="1.0" xmlns="http://www.w3.org/2000/svg"
 width="1600.000000pt" height="1600.000000pt" viewBox="0 0 1600.000000 1600.000000"
 preserveAspectRatio="xMidYMid meet">
<metadata>
Created by potrace 1.16, written by Peter Selinger 2001-2019
</metadata>
<g transform="translate(0.000000,1600.000000) scale(0.100000,-0.100000)"
fill="#000000" stroke="none">
<path d="M5947 10884 c-177 -27 -390 -96 -557 -178 -117 -58 -324 -191 -449
-290 -109 -84 -361 -321 -361 -339 0 -5 13 1 29 14 251 205 435 323 703 452
106 50 298 112 448 145 114 24 144 26 350 27 205 0 233 -2 310 -23 210 -58
332 -132 510 -311 142 -142 238 -275 324 -448 186 -373 267 -716 246 -1045
-16 -243 -68 -449 -167 -659 -113 -238 -360 -486 -586 -589 -213 -96 -456 -98
-566 -3 -68 57 -76 112 -26 171 36 43 84 51 330 55 242 4 254 7 400 77 87 42
237 149 232 165 -8 23 -254 76 -467 101 -168 19 -433 14 -540 -10 -207 -47
-390 -144 -623 -331 l-108 -87 82 -33 c96 -39 174 -91 324 -215 249 -206 361
-261 576 -280 239 -20 460 55 779 267 318 211 436 333 560 582 188 374 249
870 155 1263 -116 494 -436 988 -827 1278 -154 116 -387 215 -571 245 -115 19
-389 18 -510 -1z"/>
<path d="M9616 10889 c-222 -25 -449 -114 -634 -247 -428 -306 -734 -769 -836
-1264 -55 -269 -47 -620 19 -867 77 -287 184 -516 314 -671 145 -174 404 -367
663 -495 171 -84 237 -100 408 -98 274 3 356 43 756 366 66 53 235 142 289
153 20 3 35 10 33 15 -6 16 -272 210 -363 265 -109 65 -223 114 -325 140 -105
27 -546 27 -690 1 -228 -42 -370 -71 -370 -78 0 -12 100 -93 163 -133 145 -93
202 -106 497 -114 265 -8 285 -13 329 -68 46 -59 35 -114 -33 -164 -64 -48
-134 -64 -266 -64 -136 0 -204 16 -335 78 -112 53 -226 139 -330 247 -164 171
-266 370 -344 672 -42 160 -55 266 -55 447 -2 734 455 1481 1012 1654 181 57
413 71 645 41 381 -50 808 -246 1210 -553 53 -41 100 -73 103 -70 6 7 -208
209 -301 283 -123 99 -363 254 -493 319 -305 153 -571 218 -874 215 -68 -1
-154 -5 -192 -10z"/>
<path d="M7616 7604 c-95 -19 -151 -48 -291 -154 -66 -51 -156 -117 -200 -148
-99 -69 -241 -190 -278 -237 -44 -55 -59 -102 -59 -180 1 -163 69 -280 302
-520 364 -374 568 -657 780 -1079 63 -126 120 -231 126 -233 6 -2 31 40 55 94
215 482 415 768 850 1219 237 245 312 362 326 510 11 117 -48 203 -232 339
-38 28 -149 110 -245 181 -96 71 -203 143 -237 161 -181 92 -417 79 -478 -27
-16 -28 -20 -53 -20 -125 1 -126 33 -181 103 -173 28 3 33 10 77 113 28 64 81
127 130 152 37 20 134 19 173 -1 46 -24 92 -66 92 -85 0 -10 -13 -22 -32 -29
-53 -19 -106 -69 -118 -110 -25 -91 -3 -279 38 -325 9 -10 67 -57 129 -104 63
-47 113 -88 111 -92 -2 -4 -46 -46 -98 -93 -174 -156 -308 -329 -440 -568 -68
-121 -147 -280 -176 -350 -18 -45 -24 -51 -29 -35 -76 214 -210 477 -328 640
-64 89 -197 239 -294 332 -41 39 -72 76 -69 82 4 5 41 34 84 64 87 61 137 113
159 165 21 49 43 174 43 238 0 81 -20 111 -96 145 -92 42 -85 78 25 120 130
49 223 -5 303 -178 37 -81 39 -83 74 -83 26 0 43 8 65 29 27 27 29 35 29 100
0 159 -33 220 -135 246 -71 18 -126 18 -219 -1z"/>
</g>
</svg>
